<?xml version="1.0" standalone="no"?>
<!DOCTYPE svg PUBLIC "-//W3C//DTD SVG 20010904//EN"
 "http://www.w3.org/TR/2001/REC-SVG-20010904/DTD/svg10.dtd">
<svg version="1.0" xmlns="http://www.w3.org/2000/svg"
 width="256.000000pt" height="244.000000pt" viewBox="0 0 256.000000 244.000000"
 preserveAspectRatio="xMidYMid meet">

<g transform="translate(0.000000,244.000000) scale(0.100000,-0.100000)"
fill="#000000" stroke="none">
<path d="M1105 2284 c-231 -41 -430 -144 -597 -310 -226 -225 -339 -514 -325
-834 22 -487 356 -899 834 -1027 88 -24 115 -27 273 -27 157 0 185 3 272 27
321 86 597 316 733 610 225 488 68 1067 -375 1379 -229 161 -541 231 -815 182z
m357 -69 c220 -38 410 -136 563 -291 253 -255 355 -602 280 -959 -64 -306
-271 -569 -560 -710 -171 -84 -244 -100 -455 -100 -152 0 -186 3 -260 23 -165
45 -331 138 -455 254 -463 433 -425 1198 79 1582 230 176 529 250 808 201z"/>
<path d="M1183 2189 c-162 -15 -303 -67 -452 -166 -128 -85 -248 -213 -310
-330 -24 -45 -3 -21 35 40 43 70 195 228 266 275 82 56 208 113 307 140 84 22
116 26 256 26 197 1 288 -19 450 -98 152 -75 241 -153 390 -341 16 -20 16 -20
6 2 -20 40 -107 142 -172 199 -122 109 -272 191 -419 227 -57 15 -238 39 -265
35 -5 0 -47 -4 -92 -9z"/>
<path d="M1270 2013 c-54 -20 -67 -83 -25 -123 l25 -23 0 -234 c0 -226 1 -233
20 -233 19 0 20 7 20 229 l0 228 25 27 c44 47 29 113 -30 129 -11 3 -27 3 -35
0z"/>
<path d="M1045 1848 c-42 -14 -113 -23 -239 -31 l-179 -11 27 -23 c15 -13 39
-23 53 -23 15 0 36 -12 53 -30 18 -20 38 -30 57 -30 20 0 32 -8 44 -29 20 -34
61 -44 105 -26 29 12 33 11 58 -14 25 -24 33 -26 114 -26 l87 0 3 97 c2 85 1
97 -15 102 -10 3 -26 19 -35 36 -20 36 -44 37 -133 8z"/>
<path d="M1383 1825 l-43 -44 0 -85 c0 -85 0 -86 28 -92 15 -3 33 -8 41 -10
28 -9 102 9 138 33 30 21 42 23 72 16 53 -13 81 -5 99 28 13 21 25 29 45 29
19 0 38 10 55 30 17 20 36 30 54 30 15 0 40 11 55 25 l28 24 -81 1 c-122 0
-277 18 -347 40 -34 11 -71 20 -82 19 -11 0 -39 -20 -62 -44z"/>
<path d="M2177 1635 c20 -41 39 -73 41 -71 4 5 -66 146 -73 146 -3 0 12 -34
32 -75z"/>
<path d="M395 1649 c-4 -6 -5 -12 -2 -15 2 -3 7 2 10 11 7 17 1 20 -8 4z"/>
<path d="M350 1543 c-87 -234 -87 -490 2 -711 30 -76 32 -59 2 23 -74 202 -73
468 1 674 13 36 22 67 21 69 -2 2 -14 -23 -26 -55z"/>
<path d="M1067 1550 c-40 -7 -84 -42 -97 -76 -13 -32 0 -73 34 -109 45 -47 74
-52 121 -21 l37 26 -28 10 c-70 25 -85 34 -94 51 -14 26 -12 37 8 48 14 7 31
3 68 -15 41 -21 54 -24 77 -15 33 13 35 40 5 69 -22 20 -71 43 -86 41 -4 -1
-24 -5 -45 -9z"/>
<path d="M1386 1527 c-34 -34 -34 -65 1 -78 22 -8 35 -5 75 15 27 14 55 23 62
20 47 -18 7 -77 -66 -99 -27 -8 -89 -19 -137 -25 -108 -14 -144 -25 -182 -57
-58 -49 -75 -118 -42 -174 23 -39 44 -44 87 -19 l35 22 -20 28 c-42 56 -2 97
112 111 127 15 208 45 256 94 54 54 58 97 14 147 -26 29 -35 33 -99 36 -65 4
-73 2 -96 -21z"/>
<path d="M2222 1545 c0 -5 6 -26 13 -45 7 -19 14 -28 14 -20 0 8 -6 29 -14 45
-7 17 -13 26 -13 20z"/>
<path d="M2251 1444 c0 -11 3 -14 6 -6 3 7 2 16 -1 19 -3 4 -6 -2 -5 -13z"/>
<path d="M2266 1395 c15 -86 16 -303 0 -384 -18 -97 -14 -121 6 -34 16 72 16
374 0 418 l-12 30 6 -30z"/>
<path d="M672 1362 c-89 -32 -132 -86 -132 -168 0 -58 32 -117 78 -146 19 -11
69 -38 112 -59 90 -43 119 -75 104 -117 -5 -15 -25 -35 -44 -45 -46 -24 -136
-16 -203 17 l-48 23 3 -61 3 -61 40 -14 c23 -8 81 -14 135 -15 82 0 103 3 152
26 86 40 123 116 98 207 -16 61 -45 87 -160 145 -113 56 -138 82 -126 130 13
51 122 73 211 41 22 -8 43 -15 48 -15 4 0 7 24 7 54 0 66 -2 67 -130 72 -76 4
-106 1 -148 -14z"/>
<path d="M1622 1048 l3 -323 50 0 50 0 3 150 c1 82 6 153 11 158 4 4 48 -61
96 -145 48 -84 93 -156 99 -160 18 -12 126 -9 126 3 0 6 -40 75 -88 153 -49
77 -94 151 -100 162 -10 19 0 40 83 170 l94 149 -62 3 c-72 4 -59 17 -162
-165 -42 -73 -80 -133 -86 -133 -5 0 -9 63 -9 150 l0 150 -55 0 -55 0 2 -322z"/>
<path d="M1427 1247 c-34 -10 -37 -13 -32 -37 10 -44 -24 -74 -128 -114 -113
-44 -157 -86 -157 -149 0 -35 45 -81 67 -68 40 22 56 38 45 45 -19 12 -14 54
10 75 11 11 51 30 87 42 80 26 145 62 166 91 15 23 20 83 9 112 -7 18 -13 18
-67 3z"/>
<path d="M1277 1223 c-4 -3 -7 -22 -7 -40 0 -27 4 -34 18 -31 22 4 31 78 9 78
-7 0 -17 -3 -20 -7z"/>
<path d="M1378 1018 c-29 -10 -35 -22 -18 -33 6 -3 10 -19 10 -36 0 -24 -6
-32 -32 -44 -18 -7 -58 -25 -90 -38 -31 -14 -64 -37 -74 -52 -20 -30 -23 -80
-6 -97 17 -17 58 15 65 50 5 26 15 33 64 51 106 39 134 54 149 82 18 36 18 79
-2 107 -17 24 -25 25 -66 10z"/>
<path d="M1277 983 c-4 -3 -7 -20 -7 -36 0 -22 4 -28 16 -23 9 3 18 6 20 6 2
0 4 14 4 30 0 28 -17 40 -33 23z"/>
<path d="M2232 873 c-15 -48 -8 -55 8 -8 7 20 10 38 8 41 -3 2 -10 -13 -16
-33z"/>
<path d="M2197 785 c-24 -50 -20 -58 4 -12 11 22 19 41 17 43 -3 2 -12 -12
-21 -31z"/>
<path d="M1363 800 c-13 -5 -23 -18 -23 -29 0 -14 -19 -30 -70 -57 -78 -40
-94 -68 -69 -112 19 -33 33 -30 39 10 5 29 10 33 65 50 75 22 107 55 103 106
-3 39 -12 45 -45 32z"/>
<path d="M380 764 c0 -17 90 -156 144 -224 29 -36 85 -91 124 -123 68 -56 216
-147 237 -147 5 0 -18 15 -51 34 -160 86 -312 230 -401 381 -29 49 -53 84 -53
79z"/>
<path d="M2137 669 c-20 -33 -31 -56 -23 -50 13 11 70 111 63 111 -2 0 -20
-27 -40 -61z"/>
<path d="M1358 637 c-15 -6 -28 -20 -30 -31 -2 -13 -24 -34 -61 -55 -31 -19
-55 -36 -53 -39 8 -7 139 57 164 80 12 12 22 30 22 40 0 20 -3 20 -42 5z"/>
<path d="M2027 525 c-76 -83 -154 -146 -255 -207 -37 -22 -58 -37 -47 -34 49
17 192 117 259 182 62 61 125 134 114 134 -2 0 -34 -34 -71 -75z"/>
<path d="M1350 521 c0 -10 24 -21 43 -21 7 0 3 7 -7 15 -22 17 -36 19 -36 6z"/>
<path d="M1275 490 c-9 -14 5 -100 16 -100 5 0 9 15 9 33 0 17 3 42 6 55 5 16
2 22 -9 22 -9 0 -19 -5 -22 -10z"/>
<path d="M1670 270 c-8 -5 -10 -10 -5 -10 6 0 17 5 25 10 8 5 11 10 5 10 -5 0
-17 -5 -25 -10z"/>
<path d="M910 260 c8 -5 20 -10 25 -10 6 0 3 5 -5 10 -8 5 -19 10 -25 10 -5 0
-3 -5 5 -10z"/>
<path d="M1620 250 c-8 -5 -10 -10 -5 -10 6 0 17 5 25 10 8 5 11 10 5 10 -5 0
-17 -5 -25 -10z"/>
<path d="M1018 223 c7 -3 16 -2 19 1 4 3 -2 6 -13 5 -11 0 -14 -3 -6 -6z"/>
<path d="M1548 223 c7 -3 16 -2 19 1 4 3 -2 6 -13 5 -11 0 -14 -3 -6 -6z"/>
<path d="M1058 213 c7 -3 16 -2 19 1 4 3 -2 6 -13 5 -11 0 -14 -3 -6 -6z"/>
<path d="M1508 213 c7 -3 16 -2 19 1 4 3 -2 6 -13 5 -11 0 -14 -3 -6 -6z"/>
<path d="M1103 203 c9 -2 23 -2 30 0 6 3 -1 5 -18 5 -16 0 -22 -2 -12 -5z"/>
<path d="M1458 203 c6 -2 18 -2 25 0 6 3 1 5 -13 5 -14 0 -19 -2 -12 -5z"/>
<path d="M1168 193 c12 -2 30 -2 40 0 9 3 -1 5 -23 4 -22 0 -30 -2 -17 -4z"/>
<path d="M1378 193 c12 -2 30 -2 40 0 9 3 -1 5 -23 4 -22 0 -30 -2 -17 -4z"/>
<path d="M1278 183 c6 -2 18 -2 25 0 6 3 1 5 -13 5 -14 0 -19 -2 -12 -5z"/>
</g>
</svg>
