<?xml version="1.0" encoding="UTF-8"?>
<svg version="1.1" viewBox="0 0 1024 976" width="256" height="244" xmlns="http://www.w3.org/2000/svg">
<path transform="translate(0)" d="m0 0h1024v976h-1024z" fill="#FDFDFE"/>
<path transform="translate(0)" d="m0 0h1024v976h-1024zm497 52-28 2-35 5-28 6-31 9-27 10-27 12-21 11-22 13-15 10-18 13-16 13-11 9-17 16-13 13-7 8-12 14-13 17-13 18-12 20-12 21-14 29-13 33-9 30-7 30-5 32-3 36v39l2 26 5 35 7 32 8 26 10 28 12 26 15 29 14 23 14 20 11 14 9 11 14 15 7 8 10 10h2v2l8 7 10 9 14 11 18 14 15 10 20 12 20 11 26 12 24 9 27 9 27 7 31 6 36 4 21 1h15l36-2 26-3 27-5 28-7 36-12 22-9 24-11 23-13 18-11 20-14 12-9 13-11 8-7 10-9 26-26 9-11 10-12 12-16 12-18 12-20 13-24 11-24 9-23 7-21 8-30 6-32 4-36 1-19v-23l-1-24-4-36-6-31-8-30-10-29-11-26-15-30-16-27-11-16-9-12-11-14-12-14-12-13-16-16-8-7-14-12-17-13-17-12-19-12-23-13-26-13-30-12-31-10-29-7-31-5-26-3-17-1z" fill="#FDFDFE"/>
<path transform="translate(497,52)" d="m0 0h36l27 2 36 5 28 6 22 6 29 10 26 11 28 14 22 13 24 16 16 12 11 9 14 12 13 12 16 16 9 11 9 10 10 13 13 18 12 19 13 23 13 26 11 27 12 36 8 34 4 24 3 29 1 24v23l-2 30-4 31-6 30-7 26-9 27-12 28-11 23-13 23-14 22-14 19-13 16-12 14-30 30-8 7-17 14-18 13-21 14-17 10-18 10-31 14-27 10-29 9-30 7-24 4-32 3-24 1h-15l-32-2-30-4-35-7-31-9-28-10-28-12-19-10-18-10-20-13-19-14-16-13-21-18v-2l-4-2-14-14-7-8-11-12-11-14-14-19-12-19-10-17-15-29-12-27-10-29-6-20-7-32-5-35-2-26v-39l3-36 5-32 7-30 7-24 10-27 12-27 14-27 14-23 11-16 14-19 13-15 7-8 11-12 14-14 8-7 14-12 17-13 18-13 21-13 25-14 23-11 33-13 26-8 29-7 36-6 19-2zm-10 54-36 4-29 6-25 7-28 10-18 8-16 8-15 8-22 14-18 13-13 10-13 11-11 10-6 5-7 8-14 15-11 14-10 12-8 11-13 21-14 27-12 28-9 27-8 30-6 34-2 18-1 16v39l3 31 6 33 5 19 2 13 3 9 3 11-2-2 2 9 5 11 12 27 12 22 22 33 4 1 7 9 4 2 11 13 12 14 10 10 8 7 11 10 14 11 15 11 19 13 10 7 19 11 11 5 16 7 9 3 15 6 11 3 6 2 27 7 20 3 27 2 2 1 23 1h14l29-2 20-2 25-5 22-5 21-6 13-4v-2l14-2-1-2h6l15-7-15 8 2 1 23-11 27-15 5-4v-2l2-1v-2l4-1v-2l5-2 5-4 5-5 14-10 9-7v-2l4-2 13-12 2-1v-2l4-2 4-4v-2h2v-2h2l7-8 10-11 9-11 11-13 11-15 12-19 11-20 10-23 2-7 3-7h-2l6-16 4-13 2-11 6-25 4-24 2-21v-55l-3-27-5-29-8-31-9-27-8-19-1-7-4-5-1-5-4-4-1-7-6-6-11-18-10-15-10-14-9-11-11-13-14-15-10-10-8-7-14-12-12-9-15-10-11-8-10-5-7-5-19-9-13-6-28-11-22-7-28-7-21-4-23-3-15-1z" fill="#4672B0"/>
<path transform="translate(644,423)" d="m0 0h51v124l3-3 8-16 10-18 13-23 24-42 10-18 3-4h61l-2 5-10 16-14 22-24 38-25 40-3 4 1 5 12 19 16 26 15 24 12 19 15 24 14 23v2h-65l-15-26-16-28-14-24-16-28-12-22-1 128h-51l-1-1v-261z" fill="#4672B0"/>
<path transform="translate(298,420)" d="m0 0h42l15 2 21 5 8 3v55l-6-2-12-6-18-6-16-3h-24l-10 2-10 4-8 6-4 7v12l4 8 4 5 14 9 34 16 21 10 12 8 10 9 9 10 8 16 3 12v25l-4 17-8 14-9 10-8 7-17 9-18 6-24 4h-39l-26-4-20-6-8-4-1-1v-58l11 7 15 8 24 8 12 2h23l16-4 10-6 4-5 3-7v-8l-3-8-6-7-13-9-27-13-16-7-17-9-12-9-5-4-9-11-6-10-4-12-2-12v-14l3-15 5-12 7-11 11-11 14-9 16-7 21-5z" fill="#4672B0"/>
<path transform="translate(575,351)" d="m0 0h23l14 3 13 5 10 7 9 10 4 9 1 4v14l-3 10-4 8-9 11-7 7-16 10-21 9-21 6-25 5-26 3-18 3-9 3-10 9-3 5v10l5 8 2 4 4 2 6 6 4-2 1-3v-9l-2-9-4 2-5-1-1-2v-6l5-4 10-4 1-2 19-2 7-1 3 3h2v5l-4 4v28l4 1 7-4 8-7 2-3h2l1-4v-9l-6-10-2-4 32-7 13-4h5l5 9 4 11 1 5v13l-3 10-5 8-9 10-12 9-15 8-24 9-29 10-13 7-7 8-1 3v8l3 6 7 8 3 3-9 4-14 7-10 8-5-1-13-11-8-12-2-6v-14l5-14 7-11 7-7 10-7 5-2 2-5 5-1-1-5-5 3-1 2-12 3-3 2-5-1-9-6-9-10-7-12-3-11v-12l5-16 8-13 9-11 14-11 15-7 16-4 24-3 21-2 18-3 26-6 15-6 10-6 6-7 1-2v-6l-5-4-3-1h-7l-13 10-8 4-7 2h-16l-10-4-6-7-1-9 4-10 6-8 10-7 12-5z" fill="#4672B0"/>
<path transform="translate(502,94)" d="m0 0h29l26 2 34 5 30 7 26 8 25 10 20 9 22 12 16 9 22 14 16 12 16 13 12 11 22 22 11 14 10 12 7 11 12 19 15 27 13 26 12 29 9 28 6 26 5 32 2 24v45l-3 33-6 35-7 25-7 20-8 21-14 29-10 19-15 24-11 16-14 18-1 2h-2l-2 4-22 24-8 7-11 10-14 11-19 14-19 12-23 13-27 13-28 11-24 8-28 7-23 4-38 4h-43l-42-5-26-5-31-9-25-9-27-12-16-8-17-9-23-14-11-8-14-11-13-11-13-12-19-19-9-11-12-15-10-15-11-17-15-26-12-24-12-28-11-33-7-30-4-27-3-32v-27l3-36 6-36 7-28 10-30 9-21 11-23 16-27 12-19 10-15 12-15 7-8 9-10 20-20 11-9 18-14 23-16 17-11 21-12 19-9 27-11 28-9 28-7 24-4 24-3zm-15 12-36 4-29 6-25 7-28 10-18 8-16 8-15 8-22 14-18 13-13 10-13 11-11 10-6 5-7 8-14 15-11 14-10 12-8 11-13 21-14 27-12 28-9 27-8 30-6 34-2 18-1 16v39l3 31 6 33 5 19 2 13 3 9 3 11-2-2 2 9 5 11 12 27 12 22 22 33 4 1 7 9 4 2 11 13 12 14 10 10 8 7 11 10 14 11 15 11 19 13 10 7 19 11 11 5 16 7 9 3 15 6 11 3 6 2 27 7 20 3 27 2 2 1 23 1h14l29-2 20-2 25-5 22-5 21-6 13-4v-2l14-2-1-2h6l15-7-15 8 2 1 23-11 27-15 5-4v-2l2-1v-2l4-1v-2l5-2 5-4 5-5 14-10 9-7v-2l4-2 13-12 2-1v-2l4-2 4-4v-2h2v-2h2l7-8 10-11 9-11 11-13 11-15 12-19 11-20 10-23 2-7 3-7h-2l6-16 4-13 2-11 6-25 4-24 2-21v-55l-3-27-5-29-8-31-9-27-8-19-1-7-4-5-1-5-4-4-1-7-6-6-11-18-10-15-10-14-9-11-11-13-14-15-10-10-8-7-14-12-12-9-15-10-11-8-10-5-7-5-19-9-13-6-28-11-22-7-28-7-21-4-23-3-15-1z" fill="#4772B0"/>
<path transform="translate(509,86)" d="m0 0h13l31 2 30 4 26 5 30 8 31 11 29 13 25 13 19 12 17 12 13 10 13 11 8 7 12 11 12 12 7 8 11 13 13 17 12 17 15 23 14 27 13 32 10 32 7 28 5 29 3 28 1 14v29l-2 28-4 29-6 28-9 32-11 31-13 29-13 24-13 20-9 12-9 11-9 10-7 8-8 8-7 8-4 4h-2v2l-8 7-11 10-11 9-14 11-22 15-13 8-24 13-27 12-28 10-28 8-28 6-29 4-20 2h-52l-35-4-32-6-24-6-30-9-25-10-24-12-21-13-14-10-13-10-10-8-11-9-13-12-12-11-13-13-7-8-12-14-11-13-13-18-8-13-10-18-8-16-5-11-10-26-10-33-6-26-5-28-3-27-1-16v-24l2-30 4-29 5-24 6-24 11-33 10-24 11-23 14-24 9-13 12-16 11-13 9-11 11-11 5-6 8-7 14-14 11-9 21-16 23-15 25-14 25-12 28-11 25-8 24-6 27-5 22-3zm-7 8-20 1-37 5-24 5-28 8-28 10-29 13-20 11-19 12-23 16-17 13-11 9-12 11-19 19-7 8-11 14-10 14-13 21-15 25-12 23-11 26-10 30-7 28-6 36-3 36v27l3 32 5 32 6 25 11 33 10 23 12 25 12 22 12 19 8 12 10 14 13 16 12 13 19 19 8 7 17 14 15 11 23 14 18 10 16 8 24 11 27 10 30 9 24 5 38 5 10 1h43l38-4 27-5 28-7 28-10 24-10 29-14 17-10 16-10 18-13 16-13 11-9 8-8 7-6 7-8 7-7 5-6v-2h2l9-12 11-15 11-17 12-20 14-27 9-19 12-32 9-32 6-35 3-33v-45l-3-32-6-34-7-26-9-26-12-27-13-26-12-21-15-24-9-12-14-17-9-10-23-23-11-9-15-12-21-14-18-11-22-12-16-8-22-10-28-10-22-6-22-5-42-6-18-1z" fill="#E3F5FE"/>
<path transform="translate(445,224)" d="m0 0h17l8 7 7 10 7 8 5 2 7 2 1 1v80l-2 2-17 4-10 1h-25l-14-2-13-5-9-7-6-7-1-4-5 2-11 6-9 2-14-1-8-3-9-7-7-10-4-6-5 1-19-3-8-7-4-5-2-7-16-1-13-4-6-4-5-5-6-9-2-8 77-1 23-1 36-4 24-5 24-7z" fill="#4672B0"/>
<path transform="translate(575,223)" d="m0 0 11 1 25 9 19 5 32 5 19 2 42 2h62l-2 6-6 11-8 7-6 3-16 3h-12l-1 7-11 12-5 2-16 1-5 1-7 11-5 5-7 6-9 3h-15l-13-4-7-4h-3l-3 6-8 7-16 8-13 3-6 1h-21l-19-3-11-4v-82l13-4 8-6 4-10 9-8z" fill="#4672B0"/>
<path transform="translate(591,468)" d="m0 0h5l5 9 4 11 1 5v13l-3 10-5 8-9 10-12 9-15 8-24 9-29 10-13 7-7 8-1 3v8l3 6 7 8 3 3-9 4-14 7-10 8-5-1-13-11-8-12-2-6v-14l5-14 7-11 7-7 10-7 15-8 25-9 21-8 11-6 9-8 4-8v-9l-6-10-2-4 32-7z" fill="#4672B0"/>
<path transform="translate(900,604)" d="m0 0 4 2v8l-7 20-8 21-14 29-10 19-15 24-11 16-14 18-1 2h-2l-2 4-22 24-8 7-11 10-14 11-19 14-19 12-23 13-27 13-28 11-24 8-28 7-23 4-38 4h-43l-42-5-26-5-31-9-25-9-27-12-16-8-17-9-23-14-11-8-14-11-13-11-13-12-19-19-7-8-1-7-10-15-3-4 1-3h3l7 8v2l3-1 7 9 12 14 11 12 15 14 11 9 12 10 17 12 16 11 10 7 19 11 11 5 16 7 9 3 15 6 11 3 6 2 27 7 20 3 27 2 2 1 23 1h14l29-2 20-2 25-5 22-5 21-6 8-3h5v-2l11-3 2-2h6l15-7 2 1-15 8 23-11 27-15 3-2-1-2 5-4 3-1 3-3 5-4 4-4 18-13 7-6h2v-2l11-9 6-6h2v-2l7-6 1-2h2v-2h2l2-4 8-8 9-11 12-14 9-11 7-10 12-19 11-20 10-23 2-7 2-6h3l1-5 7-20h3l-2 3h3v-4l1-1-2-2z" fill="#4773B1"/>
<path transform="translate(510,166)" d="m0 0h12l11 4 8 7 6 9 2 6v13l-4 10-9 10-6 6-2 79-1 110-2 1h-21l-1-55v-102l-1-34-8-7-8-10-3-10v-8l4-13 9-10 7-4z" fill="#4672B0"/>
<path transform="translate(509,86)" d="m0 0h13l31 2 30 4 26 5 30 8 31 11 29 13 25 13 19 12 17 12 13 10 13 11 8 7 12 11 12 12 7 8 11 13 13 17 12 17 15 23 14 27 13 32 10 32 7 28 5 29 3 28 1 14v29l-2 28-4 29-6 28-4 15h-2l-1 4-2 1-3 9h-3l1-9 5-18 4-23 4-24 3-33v-45l-3-32-6-34-7-26-9-26-12-27-13-26-12-21-15-24-9-12-14-17-9-10-22-22-11-9-15-12-21-14-18-11-22-12-16-8-22-10-28-10-22-6-22-5-42-6-18-1h-29l-20 1-37 5-24 5-18 5h-9l-2-3 1-2h2v-2l26-7 25-5 29-4z" fill="#E3F5FE"/>
<path transform="translate(434,350)" d="m0 0h17l15 4 11 6 7 6 7 11 1 4v10l-6 7-10 4h-19l-12-6-14-9-2-1h-6l-7 6 1 6 6 8 10 6 15 6 29 7 2 2-18 8-10 5-9 7-6 8-6-1-14-7-14-10-8-8-9-14-3-7-1-6v-10l4-13 6-8 10-9 16-8z" fill="#4672B0"/>
<path transform="translate(567,557)" d="m0 0 5 1 8 9 8 16 1 5v10l-3 12-6 11-7 8-11 7-23 9-26 9-12 6-4 4-1 8 3 8-8 5-9 6-7 6-6-1-6-5-5-10-1-4v-8l4-14 6-11 8-8 16-9 15-6 19-7 14-7 6-7v-8l-5-9-10-9-2-2 22-8z" fill="#4672B0"/>
<path transform="translate(559,645)" d="m0 0h4l5 17v15l-5 14-6 8-11 8-12 5-29 8-5 5-1 23-6 4-5-1-11-11-5-8-2-8 1-9 4-8 4-5 13-9 32-16 7-4h2l-1-7-4-8 10-5 15-6z" fill="#4773B1"/>
<path transform="translate(900,604)" d="m0 0 4 2v8l-7 20-8 21-14 29-10 19-15 24-11 16-14 18-1 2h-2l-2 4-22 24-8 7-11 10-14 11-19 14-19 12-23 13-27 13-28 11-11 4h-9l-3 1-14 3-13 3-6 2-15 1v2l-12 2h-17v-2l15-2 31-5 28-7 36-12 12-6 23-11 27-15 3-2-1-2 5-4 3-1 3-3 5-4 4-4 18-13 7-6h2v-2l11-9 6-6h2v-2l7-6 1-2h2v-2h2l2-4 8-8 9-11 12-14 9-11 7-10 12-19 11-20 10-23 2-7 2-6h3l1-5 7-20h3l-2 3h3v-4l1-1-2-2z" fill="#2D518F"/>
<path transform="translate(557,709)" d="m0 0h5l1 2 1 13-3 10-7 9-13 9-25 12-23 10-16 6-9 3h-5l3-5 8-7 21-14 19-11 11-8 3-3v-4l-5 2-14 8h-4l-1-3v-7l1-3 9-3 21-5 12-5z" fill="#4773B1"/>
<path transform="translate(509,86)" d="m0 0h13l31 2 30 4 26 5 30 8 17 6v2l9 3 8 8v2l-5-1-30-11-25-7-22-5-42-6-18-1h-29l-20 1-37 5-24 5-18 5h-9l-2-3 1-2h2v-2l26-7 25-5 29-4z" fill="#E3F5FE"/>
<path transform="translate(599,385)" d="m0 0h7l6 3 3 3v6l-6 8-8 6-16 7-25 6-14 3h-11l-5-1-4 1-8 1-5-3v-3l15-1 1-4v-13l2-12 4-1 4 3 5 2 7 4 4 1h16l12-4 12-9z" fill="#FCFDFE"/>
<path transform="translate(502,230)" d="m0 0h1l1 34v157l23-1v-110l2-79 2-1 2 19 3 4h-2v82l-1 1-1 17-1 29 1 1h6l3 10 1 2-4-1-4-2-2 1-2 11v14l-4 4-13 1 2 3 8 1 4-2h7l4 2v1l-29 3h-8l3-3h2l-1-5-7-3 2-9 1-2v-26l-1-2-2-44-3-2 1-1v-80l-1-2h3l3-13z" fill="#E3F5FE"/>
<path transform="translate(524,479)" d="m0 0h5l3 3h2v5l-4 4v28l4 1 7-4 8-7 3-3-2 5-9 8-16 8-25 9-20 8-6 2 2-4 5-1-1-5-5 3-1 2-8 2v-3l10-6 19-9 4-8v-9l-2-9-4 2-5-1-1-2v-6l5-4 10-4 1-2 19-2z" fill="#E3F5FE"/>
<path transform="translate(543,758)" d="m0 0 6 2 14 12 5 4 2 3v3l-10-1-13-3-21-9 1 8-2 26-3 23-3 7h-6l-4-15-4-22-1-11v-9l16-8z" fill="#4773B1"/>
<path transform="translate(566,633)" d="m0 0v3l-6 3v4l3 2-12 4-22 9 5 10-1 5-22 12-13 6-11 6-6 5-2-1v-4l-1-3 8-7 12-7-3-8 1-8 7-6 12-6 35-12z" fill="#FBFDFE"/>
<path transform="translate(923,448)" d="m0 0h1l3 29v50l-1 1-1 8-2 35-6 28-4 15h-2l-1 4-2 1-3 9h-3l1-9 5-18 4-23 4-24 3-33v-69l3 1z" fill="#F9FCFE"/>
<path transform="translate(900,604)" d="m0 0 4 2v8l-7 20-8 21-14 29-10 19-15 24-11 16-10 13h-3l-6 7-5 6h-2v2h-2v2h-2l2-4 7-7 6-8 7-9-5 5-3 2 2-4 10-13h2l1-5 4-8 6-8 12-19 11-20 10-23 2-7 2-6h3l1-5 7-20h3l-2 3h3v-4l1-1-2-2z" fill="#2C508E"/>
<path transform="translate(127,434)" d="m0 0h1v8l-3 26-1 16v33l2 24 5 32 6 25 6 20 13 33 12 26 11 20 14 22 16 25-1 2h-2l-8-10h-3l-20-30-14-25-13-29-6-15 1-3 2 4-6-18-1-4-3-16-6-26-5-31-2-23v-39l2-25z" fill="#E1F3FD"/>
<path transform="translate(283,817)" d="m0 0 5 2 15 10 24 14 22 11 26 11 36 12 25 6 26 5 29 3h48l36-4 23-4 25-6 6-2 4 1-24 7-40 8-30 3-19 1h-14l-23-1-2-1-27-2-20-3-32-8-8-3-17-6-10-3-14-7-10-4-23-13-19-13-11-8-7-5z" fill="#E3F5FE"/>
<path transform="translate(522,480)" d="m0 0h6v36l-10 4-11 3h-3v-41z" fill="#4672B0"/>
<path transform="translate(280,826)" d="m0 0 5 2 24 14 23 12 29 13 24 9 19 6 32 8 26 5 25 3 1 2h-13l-17-1-7-2-19-3-16-4-17-4-26-9-11-3-24-11-16-8-23-13-19-12z" fill="#2B4F8D"/>
<path transform="translate(839,727)" d="m0 0v3l-2 5-5 5-8 10 4-4h2l1-3 1 2-9 11-7 9-7 8-7 6-5 6-8 7-10 9-14 11-13 10-13 8-11 7h-5l5-5 3-1 3-3 5-4 4-4 18-13 7-6h2v-2l11-9 6-6h2v-2l7-6 1-2h2v-2h2l2-4 8-8 9-11 12-14z" fill="#4C77B2"/>
<path transform="translate(567,92)" d="m0 0h16l26 5 30 8 17 6v2l9 3 8 8v2l-5-1-30-11-25-7-22-5-13-2v-2l-4-1-2 1-8-2z" fill="#F8FCFE"/>
<path transform="translate(521,574)" d="m0 0h5l2 12 1 18-8 4-14 4-3-1-1-12v-18z" fill="#4773B1"/>
<path transform="translate(129,613)" d="m0 0 2 4h2v5h2l2 5 2 3 1 7 2 2 1 5 4 10 8 17 2 2 2 8h3l12 22 21 32 3 7 7 10 4 7 1 4-4-2-13-17-8-12-11-17-15-26-12-24-12-28-4-11z" fill="#2E5391"/>
<path transform="translate(218,230)" d="m0 0v3l-10 13-9 12-16 24-7 11-12 21-11 21-6 13-8 20-3 9-8 26-2 1 4-18 2-5 3-9 3-10 3-7 6-15 1-7 4-4v-7l12-22 13-21 12-19h4l9-11 3-5z" fill="#365C99"/>
<path transform="translate(396,112)" d="m0 0 9 1-3 2-15 5-22 8-32 15-17 10-9 6-10 7-16 11-16 12-17 14-2-1 7-8 5-3 5-4 5-6 8-6 5-5 16-11 16-10 17-10 21-10 27-11z" fill="#2B4E8B"/>
<path transform="translate(503,585)" d="m0 0h1v20l1 6 16-4 7-2 2 5 10-6h3l-6 5-14 7-28 10-17 9h-4v-2l-4-2 5-5 5-4 14-7 6-2-2-3 1-9 1-7 2-1z" fill="#E2F4FD"/>
<path transform="translate(509,86)" d="m0 0h13l31 2 24 3v1h-10v4l6 1 2-3 1 3 2 2-13-1-16-2-18-1h-29l-20 1-24 3h-7v-1l20-4 16-1 4-1 14-2 2-1h-19l-17 2-3 1h-15v-1l22-3z" fill="#E3F5FE"/>
<path transform="translate(893,606)" d="m0 0 2 4-7 21-3 7 2 1-2 5-1 3-9 21-8 16-10 18-10 15-9 12-9 10-1-2 9-14 7-11 6-11 6-10 8-16 10-21 14-33z" fill="#DCEFFA"/>
<path transform="translate(566,633)" d="m0 0v3l-6 3v4l3 2-12 4-22 9-1 3-2-1-5 1-4 7-8 1-1-3 2-3-4-2-5 2-1 3 1 5-3 7-2-2-1-8 2-5 6-5 12-6 35-12z" fill="#E3F5FE"/>
<path transform="translate(527,571)" d="m0 0 3 1 5 5 8 9 3 6v8l-2 3-9 5-5 2-2-3-1-23-1-10-4-1z" fill="#FCFDFE"/>
<path transform="translate(638,115)" d="m0 0 9 1 25 10 20 9 22 12 16 9 3 2v3l2 1 1 4-14-8-23-13-28-14-17-8-15-5z" fill="#315694"/>
<path transform="translate(515,716)" d="m0 0 4 1-15 5-1 4 11-1-4 2-5 1v13l7-3 14-8 3 1-1 5-8 7-18 11-5 3-2-1 3-4h-5l4-4h2v-23l4-5z" fill="#E3F5FE"/>
<path transform="translate(738,822)" d="m0 0 4 2-5 3-5 2-1 3h-3l-1 2-2 2 1 2-25 14-19 10-11 5-2-1 15-8-10 5-6 2-3-2 8-5 23-11 18-10 20-12z" fill="#D5E9F7"/>
<path transform="translate(650,130)" d="m0 0 5 1 23 9 10 5 19 9 5 3 2 2 11 6 10 7 15 10 14 11 15 13 13 12 4 5-4-2-14-12-11-9-14-12-5-3-12-9-15-9-17-10-23-12-16-7-6-2v-2l-5-1z" fill="#E3F5FE"/>
<path transform="translate(541,751)" d="m0 0h2v6l2 1-40 18v9l3 24 3 13v5l-2-3-5-25-2-15v-9-3l-15 6-4-1 24-10 30-14z" fill="#E3F5FE"/>
<path transform="translate(812,241)" d="m0 0 5 4 11 14 13 18 12 19 8 13h2l3 6 1 5 4 4 1 6 3 3 2 9 10 25-1 4-8-20-3-10h-2l-20-38-10-17-7-9-7-11-3-6-10-11v-2h-2z" fill="#DDF0FB"/>
<path transform="translate(857,292)" d="m0 0 2 1v2h2v-2h2l12 22 11 22v8l6 15 5 12-1 4-10-24-13-27-10-19-6-12z" fill="#3A609E"/>
<path transform="translate(826,754)" d="m0 0 2 3-4 6h-2l-2 4-22 24-8 7-11 10-14 11-4 2v-4l11-9 3-3h2v-2l7-6h3l2-4 4-6 4-2 2-4h2l2-4h2l2-4h4v-2h2v-2h2l2-4 8-9z" fill="#385E9C"/>
<path transform="translate(642,419)" d="m0 0 3 2 50 1v1h-51l-1 252h-1v-246h-6l2-4z" fill="#E3F5FE"/>
<path transform="translate(109,440)" d="m0 0 3 4v15l-2 8-3-1v2h3l-2 45h-2l-1 3-1-4v-33l3-32z" fill="#FDFDFE"/>
<path transform="translate(488,88)" d="m0 0h21l-4 3-17 2-1 1-17 1-19 4-9 1-1-4 2-2 10-2 15-1 8-2z" fill="#FEFEFE"/>
<path transform="translate(300,859)" d="m0 0 6 1 19 10 16 8 8 2 15 6 3 5-5-1-10-3-9-4-10-4-16-8-7-4-10-7z" fill="#335895"/>
<path transform="translate(218,230)" d="m0 0v3l-10 13-9 12-16 24-7 11-11 19h-2l1-4 6-11 5-9 3-3 5-10 4-2 1-4 4-8 10-12 3-5z" fill="#284A88"/>
<path transform="translate(288,865)" d="m0 0 8 3 19 10 30 14 7 4-2 1-9-2-10-4-24-12-12-7-7-5z" fill="#355A97"/>
<path transform="translate(298,158)" d="m0 0 2 1-1 4-5 5-20 14-10 8-16 13-2-1 7-8 5-3 5-4 5-6 8-6 5-5 16-11z" fill="#2B4F8C"/>
<path transform="translate(841,724)" d="m0 0 1 3-2 7-2 3 4-5 3 1-5 9-11 14h-3l-6 7-5 6h-2v2h-2v2h-2l2-4 7-7 6-8 7-9-5 5-3 2 2-4 10-13h2l1-5z" fill="#365C99"/>
<path transform="translate(900,604)" d="m0 0 4 2v8l-6 18-1-3-2 1-1 4h-2v4l-2 1-1 6h-2l-2 6-3 1 1-10h2v-3h3l1-5 7-20h3l-2 3h3v-4l1-1-2-2z" fill="#355A97"/>
<path transform="translate(161,313)" d="m0 0 1 4-10 21-6 12-3 8-4 10-3 9-8 26-2 1 4-18 2-5 3-9 3-10 3-7 6-15 1-7 4-4v-7l4-1 1-3 3-2z" fill="#355A97"/>
<path transform="translate(623,884)" d="m0 0h5v3l-16 3-13 3-6 2-15 1v2l-12 2h-17v-2l15-2 31-5z" fill="#355A97"/>
<path transform="translate(461,434)" d="m0 0h2l2 5 3 2-10 6-11 9-1-3 2-4h2v-2l2-1 1-3-5 2-3 1v2l-8 7v-3l7-8 14-9z" fill="#E3F5FE"/>
<path transform="translate(567,92)" d="m0 0h16l6 1 1 2 7 1v6l-12-1-7-1v-2l-4-1-2 1-8-2z" fill="#FAFCFE"/>
<path transform="translate(202,261)" d="m0 0v3l-13 19-10 16-8 13-12 24-4 9-1-3 8-18 13-25 12-19 6-8 8-10z" fill="#E3F5FE"/>
<path transform="translate(695,561)" d="m0 0 4 4 5 10v2l-3-1-2-4-2-1-1 119h-1z" fill="#E3F5FE"/>
<path transform="translate(857,292)" d="m0 0 2 1v2l2 1 4 7 3 7 4 8 4 6 3 7 2 2 2 7 2 1 6 16 6 15-1 4-10-24-13-27-10-19-6-12z" fill="#2A4D8B"/>
<path transform="translate(589,94)" d="m0 0 11 1 17 4-1 5-3 2-8-1-10-2 1-6-7-2z" fill="#F8FCFE"/>
<path transform="translate(258,867)" d="m0 0 5 2 10 7 20 12 20 11 26 12 5 2-3 1-20-8-19-10-18-10-21-14z" fill="#E3F5FE"/>
<path transform="translate(396,112)" d="m0 0 9 1-3 2-15 5-17 6-6 1-4 1-2-2 26-10z" fill="#355B99"/>
<path transform="translate(695,423)" d="m0 0h1v117l4-1-1 5-2 3h-2z" fill="#E3F5FE"/>
<path transform="translate(527,571)" d="m0 0 3 1 5 5 7 8-2 1-10-3-1 18h-1l-1-17-1-10-4-1z" fill="#E3F5FE"/>
<path transform="translate(913,416)" d="m0 0 3 3h3l1 10-2 6 4 1 1 2v7l-2 1v-2h-5l-2-20z" fill="#FBFDFE"/>
<path transform="translate(709,145)" d="m0 0 5 2 16 9 3 2v3l2 1 1 4-21-12v-2l-8-5z" fill="#365B99"/>
<path transform="translate(638,115)" d="m0 0 9 1 25 10 4 3-3 1-6-1-13-6-15-5z" fill="#325795"/>
<path transform="translate(784,797)" d="m0 0m-1 1m4 0 2 1-10 9-14 11-4 2v-4l11-9 3-3h2v-2l6-4v2z" fill="#3A619E"/>
<path transform="translate(384,413)" d="m0 0 3 4 9 13 7 7 7 5-2 2-6-2-4-5v-2l-4-2-4-3-6-14z" fill="#E3F5FE"/>
<path transform="translate(142,639)" d="m0 0 2 1 13 30 4 9v2h-2l-2-3-2-6-8-15-4-12-2-5z" fill="#4571AF"/>
<path transform="translate(486,687)" d="m0 0 2 1-2 3 7-1 6-1-3 3-12 7-3 3-2-1v-4l-1-3z" fill="#E3F5FE"/>
<path transform="translate(129,613)" d="m0 0 2 4h2v5h2l2 5 2 3 1 7 2 2-2 3-1-2-2 2-6-16z" fill="#365B99"/>
<path transform="translate(218,230)" d="m0 0v3l-10 13-9 12-3 5-3-3 9-11 3-5z" fill="#345996"/>
<path transform="translate(526,769)" d="m0 0 5 1 16 7-3 1-16-6-1 25-3 23h-1l1-17 2-26z" fill="#E3F5FE"/>
<path transform="translate(916,541)" d="m0 0h1v13l-2 8-2-2-2 1v-17z" fill="#365C99"/>
<path transform="translate(161,313)" d="m0 0 1 4-10 21-2 3h-2l-1 2 1-10 4-4v-7l4-1 1-3 3-2z" fill="#335895"/>
<path transform="translate(811,220)" d="m0 0 6 1 4 2 6 9v4l-5-2-11-12z" fill="#FAFCFE"/>
<path transform="translate(873,317)" d="m0 0h3l10 20v4l-4-1-3-8-2-2-2-6-2-2z" fill="#3B63A0"/>
<path transform="translate(344,879)" d="m0 0 5 1 15 6 3 5-5-1-10-3-7-3z" fill="#3A619E"/>
<path transform="translate(483,408)" d="m0 0h7v5l-5 4h-6l-2-1 1-4z" fill="#E3F5FE"/>
<path transform="translate(459,895)" d="m0 0 28 3 1 2h-13l-17-1-5-2v-1z" fill="#345996"/>
<path transform="translate(428,408)" d="m0 0 8 2 12 5 12 6-9-1-16-6-8-4z" fill="#E3F5FE"/>
<path transform="translate(692,139)" d="m0 0h5v2h6l6 3v3l1 2 5 2 1 2-5-1-12-7-6-3z" fill="#2A4D8A"/>
<path transform="translate(446,92)" d="m0 0h7v1l-10 2-1 4h8v1l-10 2h-6v-6l-3-1z" fill="#E3F5FE"/>
<path transform="translate(426,96)" d="m0 0h8l1 5-1 2-5 1h-7l1-5z" fill="#F9FCFE"/>
<path transform="translate(280,826)" d="m0 0 5 2 14 8-2 2h-4l-14-9z" fill="#375E9B"/>
<path transform="translate(356,127)" d="m0 0 3 1-5 4-8 3-12 6-4-2 21-10z" fill="#3B63A0"/>
<path transform="translate(388,126)" d="m0 0h3l1 3h-5l-5 2-2 2-8 1-5 3-6 3h-6l4-3 26-10z" fill="#E3F5FE"/>
<path transform="translate(880,338)" d="m0 0h2l3 3 6 16 6 15-1 4-10-24-6-12z" fill="#2D518E"/>
<path transform="translate(790,790)" d="m0 0 2 1-5 6-5 3-3 3h-2v2l-11 9-3 3-2-1 6-7 9-7z" fill="#284B89"/>
<path transform="translate(395,104)" d="m0 0h9l-1 7h-9l-2-3 1-2h2z" fill="#FBFDFE"/>
<path transform="translate(529,900)" d="m0 0 5 1 2 1 1-2 1 3h-31l1-2z" fill="#355A97"/>
<path transform="translate(409,100)" d="m0 0 4 1h-3l-1 3 1 2 3 2-10 2v-5l-4-2z" fill="#E3F5FE"/>
<path transform="translate(645,877)" d="m0 0 2 1-3 3h-3v2l-6 2-2 1-7-1v-2z" fill="#2B4E8B"/>
<path transform="translate(392,105)" d="m0 0 3 1h-2l1 4 5 1-3 2-9 1-1-4 1-3z" fill="#EBF7FE"/>
<path transform="translate(826,754)" d="m0 0 2 3-4 6h-2l-2 4-5 6-2-4h2l2-4 8-9z" fill="#4470AD"/>
<path transform="translate(328,140)" d="m0 0 2 1-1 3-6 3v2l-7 2-3 1-2-2z" fill="#39609E"/>
<path transform="translate(482,348)" d="m0 0 7 1 2 6-5 1-5-4z" fill="#E3F5FE"/>
<path transform="translate(189,260)" d="m0 0h2l-1 7-3 6-7 3 2-5z" fill="#3A629F"/>
<path transform="translate(638,115)" d="m0 0 9 1 10 4-1 2h-6l-12-5z" fill="#3B63A0"/>
<path transform="translate(396,112)" d="m0 0 9 1-3 2-9 3h-7l1-3z" fill="#385F9C"/>
<path transform="translate(654,877)" d="m0 0h5l-4 3-17 6-4-1 3-2h4v-2l10-3 3 1z" fill="#4069A7"/>
<path transform="translate(330,874)" d="m0 0 5 1 10 5 1 3-6-1-9-4-2-3z" fill="#315592"/>
<path transform="translate(151,324)" d="m0 0 2 2-1 4-2 3-1 1-1 6-2 4-3 1 1-6z" fill="#426DAB"/>
<path transform="translate(665,862)" d="m0 0m-3 1 3 1-2 1 1 2-14 2v2l-13 4-4-1 24-9z" fill="#E3F5FE"/>
<path transform="translate(546,481)" d="m0 0 5 5 4 7v9l-2 2v-9l-3-5-5-3z" fill="#E3F5FE"/>
<path transform="translate(269,182)" d="m0 0m-1 1m-1 1m-1 1v3l-13 11-5 4-2-1 7-8 5-3z" fill="#2B4E8C"/>
<path transform="translate(182,274)" d="m0 0 2 1-6 11-3 3h-2l1-5 5-8z" fill="#335996"/>
<path transform="translate(827,750)" d="m0 0 2 1-3 5-6 7-5 6h-2v2h-2v2h-2l2-4 7-7 6-8z" fill="#2C4F8D"/>
<path transform="translate(900,604)" d="m0 0 4 2v8l-3 9-1-3v-7l1-1-2-2z" fill="#395F9D"/>
<path transform="translate(113,418)" d="m0 0 2 3v7l-2 6h-3v-7z" fill="#FEFEFE"/>
<path transform="translate(146,341)" d="m0 0h3l-1 6-3 6-3 7-1 2h-2l2-9 3-5z" fill="#335895"/>
<path transform="translate(413,100)" d="m0 0 4 1 1 4-1 2h-7l-2-4h2v-2z" fill="#FCFDFE"/>
<path transform="translate(734,837)" d="m0 0 4 1-16 10-2-1 1-3z" fill="#3C64A1"/>
<path transform="translate(200,748)" d="m0 0 4 2 5 9 1 4-4-2-5-6z" fill="#39609D"/>
<path transform="translate(275,174)" d="m0 0 2 1-12 10-4 5-6 4v-3l5-4 5-5z" fill="#3B63A0"/>
<path transform="translate(589,94)" d="m0 0 11 1 5 1-5 5v2h-5l1-6-7-2z" fill="#E3F5FE"/>
<path transform="translate(195,739)" d="m0 0 5 5 2 9-4-2-4-6z" fill="#335996"/>
<path transform="translate(557,552)" d="m0 0h2v2l-9 4-4 2-11 1 3-2z" fill="#E3F5FE"/>
<path transform="translate(539,347)" d="m0 0 5 1 1 5-2 2-4-1-1-1v-5z" fill="#E3F5FE"/>
<path transform="translate(812,241)" d="m0 0 5 4 11 14v3l-12-13v-2h-2z" fill="#E3F5FE"/>
<path transform="translate(885,639)" d="m0 0h4v6h-2l-2 6-3 1 1-10h2z" fill="#3B62A0"/>
<path transform="translate(396,316)" d="m0 0h4l5 9-4-2-1-1-8-1v-2z" fill="#E3F5FE"/>
<path transform="translate(629,885)" d="m0 0 6 1-3 2-7 2h-7v-2l10-2z" fill="#4571AF"/>
<path transform="translate(410,108)" d="m0 0h6l2 2-9 3-7-1 1-2z" fill="#385F9C"/>
<path transform="translate(116,400)" d="m0 0h2l1 2-1 9-3 2-1-4z" fill="#FEFEFE"/>
<path transform="translate(160,312)" d="m0 0 1 4-4 2-1 4-2 3-1-5 4-7z" fill="#3F69A6"/>
<path transform="translate(881,329)" d="m0 0 3 4 2 4v4l-4-1-3-9h2z" fill="#406AA7"/>
<path transform="translate(841,724)" d="m0 0 1 3-2 7-4 5-3 1 1-4 3-1 1-5z" fill="#375D9A"/>
<path transform="translate(881,652)" d="m0 0 2 2-1 4-4 9-3 1 3-9z" fill="#375D9B"/>
<path transform="translate(857,292)" d="m0 0 2 1v2l2 1 4 7 3 9h-2l-9-18z" fill="#2D508E"/>
<path transform="translate(864,688)" d="m0 0 3 1-2 4-2 2-3 7-3-1 6-11z" fill="#335896"/>
<path transform="translate(172,287)" d="m0 0 2 2-1 4-6 7-2-1z" fill="#385F9C"/>
<path transform="translate(861,293)" d="m0 0h2l4 8-2 4-5-9z" fill="#3F69A6"/>
<path transform="translate(139,627)" d="m0 0 2 2 2 10-4-2-1-9z" fill="#698FC1"/>
<path transform="translate(340,134)" d="m0 0 3 1-5 4-6 2-2-2z" fill="#416BA8"/>
<path transform="translate(746,829)" d="m0 0 3 2-9 6h-2v-3h2v-2z" fill="#3B63A1"/>
<path transform="translate(138,639)" d="m0 0 2 1v2h2l2 3-1 4v-2h-2l-1 2-2-5z" fill="#325795"/>
<path transform="translate(309,151)" d="m0 0 2 1-3 5-5 3-2-1-1-2z" fill="#3A619F"/>
<path transform="translate(475,897)" d="m0 0 12 1 1 2h-13z" fill="#355A97"/>
<path transform="translate(141,647)" d="m0 0h2v2h2l2 7h-4l-2-5z" fill="#305592"/>
<path transform="translate(446,443)" d="m0 0 2 2-3 1v2l-8 7v-3l7-8z" fill="#E7F6FE"/>
<path transform="translate(880,338)" d="m0 0h2l3 3 3 9h-3l-5-10z" fill="#2C508D"/>
<path transform="translate(189,260)" d="m0 0h2l-1 7-1 2-4-1 2-5z" fill="#3F68A6"/>
<path transform="translate(199,253)" d="m0 0 1 3-4 7-3-3z" fill="#2F5390"/>
<path transform="translate(738,822)" d="m0 0 4 2-5 3-3 2h-3l1-3z" fill="#D2E7F5"/>
<path transform="translate(161,313)" d="m0 0 1 4-5 9h-1l1-8 3-2z" fill="#2A4D8B"/>
<path transform="translate(344,144)" d="m0 0 2 1-3 3h-4v2l-3 2h-5l4-3z" fill="#E3F5FE"/>
<path transform="translate(670,129)" d="m0 0h7l2 3 5 3-2 1-12-6z" fill="#284B89"/>
<path transform="translate(336,878)" d="m0 0 8 1 2 4-6-1z" fill="#2F5390"/>
<path transform="translate(831,743)" d="m0 0 1 2-5 6-2-1 3-4h2zm-7 8m-1 1m-2 1 2 1-5 4 2-4z" fill="#406AA8"/>
<path transform="translate(502,745)" d="m0 0 4 1-2 4-5 1 1-4h2z" fill="#FEFEFE"/>
<path transform="translate(135,634)" d="m0 0h4l1 3 2 2-2 3-1-2-2 2-2-5z" fill="#3A619E"/>
<path transform="translate(192,261)" d="m0 0 3 1-2 5-3 3-1-3z" fill="#294C89"/>
<path transform="translate(298,158)" d="m0 0 2 1v3l-6 4-2-1-1-2z" fill="#365D9A"/>
<path transform="translate(666,124)" d="m0 0 6 2 4 3-3 1h-4l-3-4z" fill="#385E9C"/>
<path transform="translate(612,101)" d="m0 0h5l-2 4-6 1v-3z" fill="#E3F5FE"/>
<path transform="translate(323,870)" d="m0 0 6 2 2 2-2 2-5-1z" fill="#355A97"/>
<path transform="translate(757,821)" d="m0 0 4 1-9 6-1-3z" fill="#3B62A0"/>
<path transform="translate(269,182)" d="m0 0m-1 1m-1 1m-1 1v3l-8 7v-3z" fill="#274987"/>
<path transform="translate(690,135)" d="m0 0 5 2 6 3-4 2-2-2-5-2z" fill="#385F9D"/>
</svg>
